<svg width="512" height="512" viewBox="0 0 512 512" fill="none" xmlns="http://www.w3.org/2000/svg">
<path d="M357.856 199.856C375.965 199.834 393.326 192.631 406.131 179.826C418.936 167.022 426.139 149.66 426.16 131.552V85.9036C426.139 67.7948 418.936 50.4337 406.131 37.6288C393.326 24.8239 375.965 17.6208 357.856 17.5996H154.144C136.035 17.6208 118.674 24.8239 105.869 37.6288C93.0641 50.4337 85.861 67.7948 85.8398 85.9036V131.568C85.861 149.676 93.0641 167.038 105.869 179.842C118.674 192.647 136.035 199.85 154.144 199.872H202.16L236.592 237.136C241.584 242.528 248.656 245.616 256 245.616C263.344 245.616 270.416 242.528 275.408 237.136L309.84 199.872L357.856 199.856ZM292.96 175.68L256 215.68L219.04 175.68C217.693 174.219 216.058 173.053 214.237 172.258C212.417 171.462 210.451 171.052 208.464 171.056H154.144C143.671 171.043 133.63 166.877 126.224 159.471C118.819 152.065 114.653 142.025 114.64 131.552V85.9036C114.653 75.4304 118.819 65.3898 126.224 57.9841C133.63 50.5784 143.671 46.4123 154.144 46.3996H357.84C368.313 46.4123 378.354 50.5784 385.759 57.9841C393.165 65.3898 397.331 75.4304 397.344 85.9036V131.568C397.331 142.041 393.165 152.081 385.759 159.487C378.354 166.893 368.313 171.059 357.84 171.072H303.52C301.537 171.067 299.574 171.473 297.756 172.267C295.938 173.06 294.305 174.222 292.96 175.68Z" fill="#875A7B"/>
<path d="M193.6 94.3359H188.272C184.453 94.3359 180.79 95.8531 178.09 98.5536C175.389 101.254 173.872 104.917 173.872 108.736C173.872 112.555 175.389 116.218 178.09 118.918C180.79 121.619 184.453 123.136 188.272 123.136H193.6C197.419 123.136 201.082 121.619 203.782 118.918C206.483 116.218 208 112.555 208 108.736C208 104.917 206.483 101.254 203.782 98.5536C201.082 95.8531 197.419 94.3359 193.6 94.3359ZM258.656 94.3359H253.344C249.525 94.3359 245.862 95.8531 243.162 98.5536C240.461 101.254 238.944 104.917 238.944 108.736C238.944 112.555 240.461 116.218 243.162 118.918C245.862 121.619 249.525 123.136 253.344 123.136H258.656C262.475 123.136 266.138 121.619 268.838 118.918C271.539 116.218 273.056 112.555 273.056 108.736C273.056 104.917 271.539 101.254 268.838 98.5536C266.138 95.8531 262.475 94.3359 258.656 94.3359ZM323.712 94.3359H318.4C314.581 94.3359 310.918 95.8531 308.218 98.5536C305.517 101.254 304 104.917 304 108.736C304 112.555 305.517 116.218 308.218 118.918C310.918 121.619 314.581 123.136 318.4 123.136H323.728C327.547 123.134 331.209 121.615 333.908 118.913C336.607 116.211 338.122 112.547 338.12 108.728C338.118 104.909 336.599 101.247 333.897 98.5479C331.195 95.8489 327.531 94.3338 323.712 94.3359ZM433.488 375.968C440.688 369.096 446.42 360.835 450.338 351.686C454.257 342.537 456.281 332.689 456.288 322.736C456.288 281.92 423.072 248.704 382.256 248.704C341.44 248.704 308.224 281.92 308.224 322.736C308.224 343.664 317.024 362.496 331.024 375.968C303.568 388.992 284.4 416.752 284.4 449.104V458.64C284.4 472.656 294.352 484.736 308.064 487.344C332.464 492.016 357.424 494.384 382.24 494.384C407.056 494.384 432.016 492.016 456.416 487.344C463.081 486.054 469.089 482.483 473.407 477.245C477.725 472.007 480.085 465.429 480.08 458.64V449.104C480.112 416.768 460.944 388.992 433.488 375.968ZM382.272 277.504C407.216 277.504 427.504 297.792 427.504 322.736C427.504 347.68 407.216 367.968 382.272 367.968C357.328 367.968 337.04 347.68 337.04 322.736C337.04 297.792 357.328 277.504 382.272 277.504ZM451.04 459.072C408.926 466.983 365.752 467.465 323.472 460.496C320.048 459.904 316.624 459.36 313.216 458.64V449.104C313.229 435.227 318.747 421.923 328.559 412.111C338.371 402.299 351.676 396.781 365.552 396.768H398.976C412.853 396.781 426.157 402.299 435.969 412.111C445.781 421.923 451.299 435.227 451.312 449.104L451.04 459.072ZM180.96 375.968C188.16 369.096 193.892 360.835 197.81 351.686C201.729 342.537 203.753 332.689 203.76 322.736C203.76 281.92 170.544 248.704 129.728 248.704C88.9121 248.704 55.6961 281.92 55.6961 322.736C55.6961 343.664 64.4961 362.496 78.4961 375.968C51.0401 388.992 31.8721 416.752 31.8721 449.104V458.64C31.8721 472.656 41.8241 484.736 55.5361 487.344C79.9361 492.016 104.896 494.384 129.712 494.384C154.528 494.384 179.488 492.016 203.888 487.344C210.553 486.054 216.561 482.483 220.879 477.245C225.197 472.007 227.557 465.429 227.552 458.64V449.104C227.584 416.768 208.416 388.992 180.96 375.968ZM129.728 277.504C154.672 277.504 174.96 297.792 174.96 322.736C174.96 347.68 154.672 367.968 129.728 367.968C104.784 367.968 84.4961 347.68 84.4961 322.736C84.4961 297.792 104.784 277.504 129.728 277.504ZM198.512 459.072C156.398 466.983 113.224 467.465 70.9441 460.496C67.5201 459.904 64.0961 459.36 60.6881 458.64V449.104C60.7008 435.227 66.2188 421.923 76.031 412.111C85.8431 402.299 99.1476 396.781 113.024 396.768H146.448C160.325 396.781 173.629 402.299 183.441 412.111C193.253 421.923 198.771 435.227 198.784 449.104L198.512 459.072Z" fill="#875A7B"/>
</svg>
