<svg width="512" height="512" viewBox="0 0 512 512" fill="none" xmlns="http://www.w3.org/2000/svg">
<path d="M487.743 217.377C487.26 212.056 484.841 208.67 479.52 206.735C451.464 196.577 431.148 178.679 416.637 151.107C407.446 133.693 402.609 117.731 401.641 101.768C401.158 95.9634 401.158 89.675 402.125 83.8704C402.609 80.0007 403.093 76.1309 404.06 71.7774C404.06 70.81 404.544 70.3263 404.544 69.3588V65.9728C404.06 61.6193 401.641 58.717 397.288 55.8147C391.967 52.9124 387.13 49.5264 381.809 46.6241L378.907 44.6892C371.167 39.852 362.46 34.5311 354.237 29.6939C347.949 25.8241 342.144 27.2753 339.242 28.7264C337.791 29.2102 336.823 30.1776 335.372 31.6288L333.921 32.5962C329.084 36.4659 323.763 40.8194 317.958 44.2055C315.539 45.6566 313.121 46.624 310.702 47.5915C288.935 55.331 269.102 58.2333 250.721 57.2659C225.568 55.8147 203.317 46.1403 183 28.2427C176.228 22.4381 170.424 23.4055 165.587 26.3078C151.559 34.5311 136.563 42.7543 121.568 50.4938C118.182 52.9124 115.764 54.8473 114.796 57.7496C114.312 58.717 113.829 59.6845 113.829 60.6519V66.4565C114.796 71.7774 115.28 77.0983 115.28 82.4193V82.903C115.764 89.1913 115.28 95.4797 114.312 101.768C113.345 108.54 111.894 114.828 109.959 121.117C102.219 144.335 86.2567 165.619 62.0707 184.968C60.1359 186.419 57.7173 187.87 55.2987 189.321C49.494 192.707 42.722 194.642 36.9173 197.061L35.4662 197.544C33.5313 198.028 32.0802 198.512 31.1127 199.479C27.7267 201.414 25.7918 203.833 24.8244 206.735C24.3407 207.702 24.3407 208.67 23.8569 209.637V241.079H141.401C141.401 236.242 141.884 230.921 142.368 226.084C142.852 221.247 143.819 216.409 145.27 211.572C146.722 205.768 148.656 200.447 151.075 195.609C151.559 194.158 152.526 192.223 153.494 190.772L153.977 190.289C164.135 169.972 180.098 153.042 200.898 141.917C220.247 131.275 241.53 126.438 262.814 127.889C271.521 128.373 280.228 129.824 288.935 132.726C318.442 141.917 343.111 162.233 357.623 190.772C366.33 207.219 370.2 224.633 370.2 242.046H487.743V217.377ZM291.837 275.423C283.614 273.972 275.391 278.809 272.005 287.516C267.651 298.158 263.782 309.283 259.428 319.925L244.433 359.59C231.856 392.967 218.796 426.343 206.219 459.72L205.735 461.171C205.252 462.622 204.284 464.557 203.8 466.492C203.8 467.46 203.317 468.427 203.317 469.394C203.317 475.683 207.67 481.487 212.024 484.39C214.926 486.325 218.312 487.292 222.182 487.292H224.6C231.856 486.325 237.177 481.971 240.079 474.715C247.335 455.367 254.591 436.018 262.33 417.153L276.842 378.939C286.516 353.302 296.674 327.181 306.349 301.544C307.316 299.125 308.284 295.739 308.284 292.353C306.833 284.13 300.544 276.874 291.837 275.423ZM134.145 417.636L97.8659 381.358L98.3497 380.874C100.285 378.939 102.219 377.488 104.154 375.553L110.926 368.781C129.308 350.4 147.689 332.018 165.587 313.637C167.521 311.702 170.424 307.832 171.875 303.479C174.294 295.739 170.424 287.032 163.168 282.679C155.428 278.809 147.205 279.777 140.917 286.549C117.698 309.767 94.4799 333.469 70.7777 356.688L63.0382 364.427L55.2987 372.651L54.8149 373.134C51.9126 376.52 49.9778 382.809 54.3312 389.097C54.3312 389.581 54.8149 389.581 54.8149 390.064L55.2987 391.032C56.7498 392.967 58.201 394.902 60.1359 396.837L94.9636 431.664L107.057 443.757C118.182 454.883 128.824 466.008 139.949 476.65C143.819 480.52 148.656 482.455 153.977 482.455H155.428C160.749 481.971 165.587 479.553 168.489 475.199C174.294 467.46 173.326 457.785 165.587 450.046L134.145 417.636ZM456.302 372.651L448.078 363.944C445.66 361.525 443.241 358.623 440.339 356.204C417.12 332.502 393.902 309.283 370.2 286.065C363.911 279.777 355.688 278.325 347.949 282.195C340.209 286.065 336.823 294.772 339.242 302.995C340.693 307.349 343.595 311.218 345.53 313.153C363.428 331.535 381.325 349.432 399.223 367.33L406.962 375.069C408.897 377.004 410.832 378.455 412.767 380.39L413.251 380.874L344.563 450.046C337.307 457.785 335.856 466.976 341.66 475.199C345.046 479.553 349.4 482.455 354.721 482.455H356.172C361.009 482.455 366.33 480.52 370.2 476.65C381.325 465.525 391.967 454.883 402.609 443.757L415.186 431.181L450.013 396.353C451.948 394.418 453.399 392.483 454.851 390.548L455.334 389.581L456.302 388.613C461.623 382.809 459.688 376.52 456.302 372.651Z" fill="#875A7B"/>
</svg>
