<svg width="512" height="512" viewBox="0 0 512 512" fill="none" xmlns="http://www.w3.org/2000/svg">
<g clip-path="url(#clip0_1785_74)">
<mask id="path-1-outside-1_1785_74" maskUnits="userSpaceOnUse" x="3.14941" y="-2" width="506" height="516" fill="black">
<rect fill="white" x="3.14941" y="-2" width="506" height="516"/>
<path d="M500.162 363.821L471.254 359.194C469.658 354.174 467.636 349.299 465.212 344.622L482.385 320.903C483.501 319.362 484.031 317.474 483.88 315.577C483.729 313.681 482.908 311.9 481.562 310.555L459.286 288.279C457.941 286.934 456.161 286.112 454.264 285.961C452.368 285.81 450.479 286.34 448.938 287.456L425.22 304.628C420.543 302.203 415.668 300.181 410.647 298.584L406.02 269.679C405.72 267.801 404.759 266.091 403.312 264.856C401.864 263.622 400.024 262.944 398.121 262.944H366.619C364.717 262.944 362.877 263.622 361.429 264.856C359.982 266.091 359.021 267.801 358.72 269.679L354.093 298.584C349.072 300.18 344.196 302.202 339.518 304.627L315.801 287.455C314.261 286.339 312.372 285.809 310.476 285.96C308.579 286.11 306.799 286.932 305.453 288.278L283.178 310.554C281.833 311.899 281.012 313.68 280.861 315.576C280.71 317.473 281.24 319.361 282.355 320.902L299.529 344.62C297.104 349.297 295.083 354.172 293.486 359.192L264.578 363.82C262.7 364.121 260.99 365.081 259.756 366.529C258.521 367.976 257.843 369.817 257.843 371.719V403.221C257.844 405.123 258.522 406.964 259.756 408.411C260.99 409.859 262.7 410.819 264.578 411.12L293.485 415.747C295.082 420.767 297.104 425.642 299.529 430.319L282.355 454.038C281.24 455.579 280.71 457.467 280.861 459.364C281.012 461.26 281.833 463.041 283.178 464.386L305.453 486.661C306.799 488.006 308.579 488.828 310.476 488.979C312.372 489.13 314.26 488.6 315.801 487.484L339.52 470.312C344.197 472.737 349.072 474.759 354.092 476.356L358.719 505.261C359.02 507.139 359.981 508.849 361.428 510.084C362.876 511.318 364.716 511.996 366.618 511.996H398.12C400.023 511.996 401.863 511.318 403.311 510.084C404.758 508.849 405.719 507.139 406.02 505.261L410.646 476.353C415.667 474.756 420.542 472.735 425.219 470.311L448.938 487.484C450.479 488.6 452.367 489.13 454.263 488.979C456.16 488.828 457.94 488.006 459.285 486.661L481.561 464.386C482.907 463.041 483.728 461.26 483.879 459.364C484.03 457.467 483.5 455.579 482.384 454.038L465.212 430.32C467.638 425.643 469.66 420.767 471.257 415.746L500.162 411.119C502.041 410.818 503.751 409.858 504.985 408.41C506.219 406.963 506.897 405.122 506.897 403.22V371.72C506.897 369.818 506.219 367.977 504.985 366.53C503.751 365.082 502.041 364.122 500.162 363.821ZM490.897 396.401L463.707 400.754C462.167 401.001 460.733 401.692 459.58 402.743C458.428 403.795 457.608 405.16 457.221 406.671C455.41 413.748 452.597 420.531 448.868 426.813C448.073 428.155 447.687 429.7 447.758 431.259C447.829 432.818 448.355 434.321 449.27 435.585L465.425 457.898L452.796 470.527L430.483 454.371C429.22 453.456 427.716 452.93 426.158 452.859C424.599 452.787 423.054 453.174 421.712 453.97C415.43 457.698 408.647 460.51 401.57 462.322C400.059 462.709 398.694 463.528 397.643 464.681C396.591 465.833 395.9 467.268 395.654 468.808L391.298 496H373.438L369.085 468.81C368.839 467.27 368.147 465.835 367.096 464.683C366.045 463.53 364.68 462.711 363.168 462.324C356.092 460.513 349.31 457.7 343.029 453.971C341.687 453.175 340.141 452.788 338.582 452.86C337.023 452.931 335.519 453.456 334.255 454.371L311.941 470.527L299.312 457.898L315.468 435.584C316.383 434.32 316.909 432.817 316.98 431.258C317.051 429.699 316.665 428.154 315.869 426.812C312.142 420.529 309.329 413.747 307.517 406.67C307.131 405.159 306.311 403.794 305.159 402.742C304.006 401.691 302.572 401 301.031 400.753L273.839 396.4V378.541L301.031 374.187C302.572 373.94 304.006 373.249 305.158 372.197C306.311 371.146 307.131 369.781 307.517 368.27C309.329 361.193 312.141 354.411 315.869 348.129C316.665 346.787 317.051 345.242 316.98 343.683C316.908 342.125 316.383 340.621 315.468 339.357L299.312 317.044L311.941 304.415L334.254 320.57C335.518 321.485 337.022 322.01 338.581 322.082C340.139 322.153 341.685 321.767 343.026 320.971C349.309 317.242 356.091 314.43 363.168 312.619C364.68 312.233 366.045 311.413 367.097 310.26C368.148 309.108 368.84 307.673 369.086 306.133L373.439 278.943H391.299L395.652 306.133C395.899 307.673 396.591 309.108 397.642 310.26C398.694 311.413 400.059 312.233 401.57 312.619C408.647 314.43 415.429 317.243 421.71 320.972C423.052 321.768 424.598 322.154 426.156 322.083C427.715 322.011 429.219 321.486 430.482 320.571L452.796 304.415L465.424 317.044L449.268 339.358C448.354 340.622 447.828 342.125 447.757 343.684C447.686 345.243 448.072 346.788 448.867 348.13C452.595 354.412 455.408 361.194 457.219 368.271C457.606 369.782 458.426 371.147 459.578 372.199C460.731 373.25 462.165 373.941 463.705 374.188L490.897 378.541V396.401ZM382.368 332.924C352.292 332.924 327.822 357.394 327.822 387.471C327.822 417.548 352.292 442.017 382.368 442.017C412.445 442.017 436.914 417.548 436.914 387.471C436.914 357.394 412.445 332.924 382.368 332.924ZM382.368 426.018C361.115 426.018 343.822 408.726 343.822 387.472C343.822 366.217 361.115 348.925 382.368 348.925C403.622 348.925 420.914 366.217 420.914 387.472C420.915 408.726 403.623 426.018 382.368 426.018ZM82.2415 254.436V267.895C82.2415 277.224 88.1535 285.197 96.4265 288.269V295.347C96.4265 304.635 102.287 312.577 110.503 315.678V322.799C110.503 334.778 120.249 344.525 132.228 344.525H150.041C162.02 344.525 171.766 334.779 171.766 322.799V315.678C179.982 312.577 185.842 304.635 185.842 295.347V287.907C193.632 284.602 199.109 276.877 199.109 267.896V254.43C201.194 219.489 209.855 204.681 218.234 190.363C225.9 177.261 233.141 164.887 233.141 140.915C233.141 89.929 191.661 48.449 140.676 48.449C89.6915 48.449 48.2105 89.928 48.2105 140.914C48.2105 164.886 55.4515 177.261 63.1175 190.362C71.4955 204.681 80.1575 219.49 82.2415 254.436ZM118.089 153.163H106.461C100.049 153.163 94.8335 147.947 94.8335 141.535C94.8335 135.123 100.049 129.907 106.461 129.907C112.873 129.907 118.089 135.123 118.089 141.535V153.163ZM147.261 246.167H134.089V169.163H147.261V246.167ZM183.109 262.167V267.895C183.108 269.413 182.504 270.868 181.431 271.941C180.358 273.015 178.902 273.618 177.384 273.62H103.966C102.449 273.618 100.993 273.015 99.9201 271.941C98.8467 270.868 98.2431 269.413 98.2415 267.895V262.167H183.109ZM164.118 301.071H118.152C116.634 301.069 115.179 300.466 114.105 299.392C113.032 298.319 112.428 296.863 112.426 295.345V289.619H169.843V295.345C169.842 296.863 169.238 298.318 168.165 299.391C167.091 300.465 165.636 301.069 164.118 301.071ZM150.041 328.524H132.228C130.71 328.522 129.255 327.919 128.182 326.845C127.108 325.772 126.505 324.316 126.503 322.798V317.071H155.767V322.798C155.766 324.316 155.162 325.771 154.088 326.845C153.015 327.918 151.56 328.522 150.041 328.524ZM140.675 64.448C182.838 64.448 217.14 98.75 217.14 140.914C217.14 160.549 211.528 170.14 204.424 182.282C196.519 195.791 186.811 212.382 183.689 246.168H163.261V169.164H174.889C190.123 169.164 202.517 156.77 202.517 141.536C202.517 126.302 190.123 113.908 174.889 113.908C159.655 113.908 147.261 126.302 147.261 141.536V153.164H134.089V141.536C134.089 126.302 121.695 113.908 106.461 113.908C91.2275 113.908 78.8335 126.302 78.8335 141.536C78.8335 156.77 91.2275 169.164 106.461 169.164H118.089V246.168H97.6615C94.5395 212.382 84.8315 195.792 76.9275 182.282C69.8235 170.14 64.2115 160.55 64.2115 140.914C64.2105 98.75 98.5125 64.448 140.675 64.448ZM163.261 153.163V141.535C163.261 135.123 168.477 129.907 174.889 129.907C181.301 129.907 186.517 135.123 186.517 141.535C186.517 147.947 181.301 153.163 174.889 153.163H163.261ZM132.676 27.896V8C132.676 5.87827 133.519 3.84344 135.02 2.34315C136.52 0.842855 138.555 0 140.676 0C142.798 0 144.833 0.842855 146.333 2.34315C147.834 3.84344 148.676 5.87827 148.676 8V27.896C148.676 30.0177 147.834 32.0526 146.333 33.5529C144.833 35.0531 142.798 35.896 140.676 35.896C138.555 35.896 136.52 35.0531 135.02 33.5529C133.519 32.0526 132.676 30.0177 132.676 27.896ZM60.0935 31.735C59.0493 29.8985 58.774 27.7236 59.3275 25.6849C59.881 23.6461 61.2184 21.9091 63.0479 20.8528C64.8774 19.7965 67.0505 19.5067 69.0928 20.0467C71.1352 20.5867 72.8811 21.9125 73.9495 23.735L83.8975 40.965C84.4228 41.8749 84.7637 42.8793 84.9008 43.9209C85.0379 44.9625 84.9685 46.021 84.6966 47.0358C84.4247 48.0506 83.9555 49.0019 83.3159 49.8354C82.6763 50.6689 81.8788 51.3682 80.969 51.8935C80.0591 52.4188 79.0547 52.7597 78.0131 52.8968C76.9715 53.0339 75.913 52.9646 74.8982 52.6926C73.8834 52.4207 72.9321 51.9515 72.0986 51.3119C71.2651 50.6724 70.5658 49.8749 70.0405 48.965L60.0935 31.735ZM37.2625 95.602C36.7374 96.5121 36.0381 97.3098 35.2045 97.9496C34.371 98.5893 33.4196 99.0586 32.4047 99.3305C31.3897 99.6024 30.3311 99.6717 29.2894 99.5343C28.2477 99.397 27.2433 99.0557 26.3335 98.53L9.10348 88.582C7.28103 87.5136 5.95515 85.7677 5.41518 83.7253C4.87521 81.683 5.16499 79.5099 6.22128 77.6804C7.27757 75.8509 9.01462 74.5135 11.0534 73.96C13.0921 73.4065 15.267 73.6819 17.1035 74.726L34.3335 84.674C35.2433 85.1992 36.0408 85.8985 36.6805 86.7319C37.3201 87.5654 37.7893 88.5166 38.0612 89.5314C38.3332 90.5461 38.4027 91.6045 38.2656 92.6461C38.1286 93.6877 37.7877 94.6921 37.2625 95.602ZM197.453 40.966L207.401 23.736C207.926 22.8259 208.626 22.0282 209.459 21.3885C210.293 20.7488 211.244 20.2795 212.259 20.0076C213.274 19.7357 214.332 19.6664 215.374 19.8038C216.415 19.9411 217.42 20.2823 218.329 20.808C220.167 21.8689 221.508 23.6162 222.057 25.6656C222.606 27.715 222.318 29.8986 221.257 31.736L211.309 48.966C210.784 49.8762 210.085 50.674 209.252 51.3138C208.418 51.9537 207.467 52.423 206.452 52.6949C205.437 52.9668 204.378 53.036 203.336 52.8986C202.295 52.7612 201.29 52.4198 200.38 51.894C198.543 50.8329 197.203 49.0855 196.654 47.0362C196.105 44.9868 196.393 42.8033 197.453 40.966ZM244.089 95.602C243.029 93.7646 242.741 91.581 243.29 89.5316C243.839 87.4822 245.18 85.7349 247.017 84.674L264.247 74.726C266.082 73.7082 268.244 73.4518 270.266 74.0122C272.288 74.5726 274.009 75.9049 275.058 77.722C276.107 79.5391 276.4 81.6956 275.875 83.727C275.349 85.7583 274.046 87.5019 272.247 88.582L255.017 98.53C254.108 99.0558 253.103 99.3971 252.062 99.5346C251.02 99.672 249.962 99.6027 248.947 99.3308C247.932 99.0589 246.98 98.5896 246.147 97.9498C245.314 97.31 244.614 96.5122 244.089 95.602ZM252.999 438.976L183.016 387.633C181.824 386.759 180.413 386.233 178.94 386.112C177.467 385.992 175.989 386.281 174.67 386.949C173.351 387.617 172.243 388.637 171.469 389.897C170.695 391.156 170.285 392.605 170.283 394.083V412.545C132.476 411.515 97.1495 402.085 84.6965 353.593C84.2983 352.043 83.4443 350.648 82.245 349.588C81.0456 348.528 79.556 347.853 77.9686 347.649C76.3812 347.445 74.7691 347.721 73.3407 348.443C71.9122 349.165 70.733 350.298 69.9555 351.697C55.1105 378.41 55.3425 409.816 70.5745 435.705C79.5235 450.916 93.4125 463.531 110.738 472.187C127.717 480.669 147.716 485.407 170.283 486.304V504C170.283 505.522 170.717 507.013 171.535 508.297C172.352 509.581 173.519 510.605 174.898 511.249C176.277 511.893 177.811 512.13 179.32 511.933C180.83 511.736 182.251 511.112 183.418 510.135L253.401 451.561C254.331 450.782 255.072 449.802 255.568 448.695C256.063 447.588 256.3 446.383 256.262 445.171C256.223 443.958 255.909 442.771 255.344 441.698C254.779 440.624 253.977 439.694 252.999 438.976ZM186.283 486.872V478.462C186.283 476.34 185.441 474.305 183.94 472.805C182.44 471.305 180.405 470.462 178.283 470.462C134.625 470.462 100.392 454.837 84.3645 427.592C75.4805 412.492 72.9165 395.049 76.6935 378.357C85.5685 396.723 99.1695 410.123 117.314 418.328C137.424 427.422 159.42 428.648 178.284 428.648C180.406 428.648 182.441 427.805 183.941 426.305C185.442 424.805 186.284 422.77 186.284 420.648V409.874L235.308 445.841L186.283 486.872ZM252.518 151.574C252.557 152.786 252.871 153.974 253.437 155.047C254.002 156.12 254.804 157.051 255.782 157.768L330.79 212.798C331.982 213.673 333.394 214.201 334.868 214.322C336.341 214.444 337.82 214.154 339.139 213.486C340.458 212.818 341.566 211.797 342.34 210.537C343.114 209.277 343.524 207.827 343.523 206.348V185.971C384.494 186.995 422.879 197.008 436.386 249.602C436.785 251.152 437.639 252.547 438.838 253.607C440.037 254.666 441.527 255.342 443.114 255.546C444.702 255.75 446.314 255.474 447.742 254.752C449.171 254.03 450.35 252.897 451.128 251.498C466.939 223.046 466.692 189.6 450.471 162.028C440.936 145.821 426.133 132.377 407.661 123.149C389.399 114.025 367.853 108.96 343.522 108.057V88.539C343.523 87.0169 343.088 85.5264 342.271 84.2424C341.454 82.9584 340.287 81.9343 338.908 81.2901C337.529 80.646 335.995 80.4087 334.486 80.606C332.976 80.8033 331.555 81.427 330.387 82.404L255.379 145.183C254.45 145.962 253.709 146.942 253.213 148.049C252.717 149.156 252.48 150.362 252.518 151.574ZM327.522 105.667V115.911C327.522 118.033 328.365 120.068 329.866 121.568C331.366 123.068 333.401 123.911 335.522 123.911C382.524 123.911 419.395 140.762 436.68 170.141C446.561 186.936 449.205 206.417 444.589 224.928C435.155 204.607 420.433 189.839 400.633 180.886C379.178 171.184 355.679 169.876 335.522 169.876C333.401 169.876 331.366 170.719 329.866 172.219C328.365 173.719 327.522 175.754 327.522 177.876V190.557L273.473 150.904L327.522 105.667Z"/>
</mask>
<path d="M500.162 363.821L471.254 359.194C469.658 354.174 467.636 349.299 465.212 344.622L482.385 320.903C483.501 319.362 484.031 317.474 483.88 315.577C483.729 313.681 482.908 311.9 481.562 310.555L459.286 288.279C457.941 286.934 456.161 286.112 454.264 285.961C452.368 285.81 450.479 286.34 448.938 287.456L425.22 304.628C420.543 302.203 415.668 300.181 410.647 298.584L406.02 269.679C405.72 267.801 404.759 266.091 403.312 264.856C401.864 263.622 400.024 262.944 398.121 262.944H366.619C364.717 262.944 362.877 263.622 361.429 264.856C359.982 266.091 359.021 267.801 358.72 269.679L354.093 298.584C349.072 300.18 344.196 302.202 339.518 304.627L315.801 287.455C314.261 286.339 312.372 285.809 310.476 285.96C308.579 286.11 306.799 286.932 305.453 288.278L283.178 310.554C281.833 311.899 281.012 313.68 280.861 315.576C280.71 317.473 281.24 319.361 282.355 320.902L299.529 344.62C297.104 349.297 295.083 354.172 293.486 359.192L264.578 363.82C262.7 364.121 260.99 365.081 259.756 366.529C258.521 367.976 257.843 369.817 257.843 371.719V403.221C257.844 405.123 258.522 406.964 259.756 408.411C260.99 409.859 262.7 410.819 264.578 411.12L293.485 415.747C295.082 420.767 297.104 425.642 299.529 430.319L282.355 454.038C281.24 455.579 280.71 457.467 280.861 459.364C281.012 461.26 281.833 463.041 283.178 464.386L305.453 486.661C306.799 488.006 308.579 488.828 310.476 488.979C312.372 489.13 314.26 488.6 315.801 487.484L339.52 470.312C344.197 472.737 349.072 474.759 354.092 476.356L358.719 505.261C359.02 507.139 359.981 508.849 361.428 510.084C362.876 511.318 364.716 511.996 366.618 511.996H398.12C400.023 511.996 401.863 511.318 403.311 510.084C404.758 508.849 405.719 507.139 406.02 505.261L410.646 476.353C415.667 474.756 420.542 472.735 425.219 470.311L448.938 487.484C450.479 488.6 452.367 489.13 454.263 488.979C456.16 488.828 457.94 488.006 459.285 486.661L481.561 464.386C482.907 463.041 483.728 461.26 483.879 459.364C484.03 457.467 483.5 455.579 482.384 454.038L465.212 430.32C467.638 425.643 469.66 420.767 471.257 415.746L500.162 411.119C502.041 410.818 503.751 409.858 504.985 408.41C506.219 406.963 506.897 405.122 506.897 403.22V371.72C506.897 369.818 506.219 367.977 504.985 366.53C503.751 365.082 502.041 364.122 500.162 363.821ZM490.897 396.401L463.707 400.754C462.167 401.001 460.733 401.692 459.58 402.743C458.428 403.795 457.608 405.16 457.221 406.671C455.41 413.748 452.597 420.531 448.868 426.813C448.073 428.155 447.687 429.7 447.758 431.259C447.829 432.818 448.355 434.321 449.27 435.585L465.425 457.898L452.796 470.527L430.483 454.371C429.22 453.456 427.716 452.93 426.158 452.859C424.599 452.787 423.054 453.174 421.712 453.97C415.43 457.698 408.647 460.51 401.57 462.322C400.059 462.709 398.694 463.528 397.643 464.681C396.591 465.833 395.9 467.268 395.654 468.808L391.298 496H373.438L369.085 468.81C368.839 467.27 368.147 465.835 367.096 464.683C366.045 463.53 364.68 462.711 363.168 462.324C356.092 460.513 349.31 457.7 343.029 453.971C341.687 453.175 340.141 452.788 338.582 452.86C337.023 452.931 335.519 453.456 334.255 454.371L311.941 470.527L299.312 457.898L315.468 435.584C316.383 434.32 316.909 432.817 316.98 431.258C317.051 429.699 316.665 428.154 315.869 426.812C312.142 420.529 309.329 413.747 307.517 406.67C307.131 405.159 306.311 403.794 305.159 402.742C304.006 401.691 302.572 401 301.031 400.753L273.839 396.4V378.541L301.031 374.187C302.572 373.94 304.006 373.249 305.158 372.197C306.311 371.146 307.131 369.781 307.517 368.27C309.329 361.193 312.141 354.411 315.869 348.129C316.665 346.787 317.051 345.242 316.98 343.683C316.908 342.125 316.383 340.621 315.468 339.357L299.312 317.044L311.941 304.415L334.254 320.57C335.518 321.485 337.022 322.01 338.581 322.082C340.139 322.153 341.685 321.767 343.026 320.971C349.309 317.242 356.091 314.43 363.168 312.619C364.68 312.233 366.045 311.413 367.097 310.26C368.148 309.108 368.84 307.673 369.086 306.133L373.439 278.943H391.299L395.652 306.133C395.899 307.673 396.591 309.108 397.642 310.26C398.694 311.413 400.059 312.233 401.57 312.619C408.647 314.43 415.429 317.243 421.71 320.972C423.052 321.768 424.598 322.154 426.156 322.083C427.715 322.011 429.219 321.486 430.482 320.571L452.796 304.415L465.424 317.044L449.268 339.358C448.354 340.622 447.828 342.125 447.757 343.684C447.686 345.243 448.072 346.788 448.867 348.13C452.595 354.412 455.408 361.194 457.219 368.271C457.606 369.782 458.426 371.147 459.578 372.199C460.731 373.25 462.165 373.941 463.705 374.188L490.897 378.541V396.401ZM382.368 332.924C352.292 332.924 327.822 357.394 327.822 387.471C327.822 417.548 352.292 442.017 382.368 442.017C412.445 442.017 436.914 417.548 436.914 387.471C436.914 357.394 412.445 332.924 382.368 332.924ZM382.368 426.018C361.115 426.018 343.822 408.726 343.822 387.472C343.822 366.217 361.115 348.925 382.368 348.925C403.622 348.925 420.914 366.217 420.914 387.472C420.915 408.726 403.623 426.018 382.368 426.018ZM82.2415 254.436V267.895C82.2415 277.224 88.1535 285.197 96.4265 288.269V295.347C96.4265 304.635 102.287 312.577 110.503 315.678V322.799C110.503 334.778 120.249 344.525 132.228 344.525H150.041C162.02 344.525 171.766 334.779 171.766 322.799V315.678C179.982 312.577 185.842 304.635 185.842 295.347V287.907C193.632 284.602 199.109 276.877 199.109 267.896V254.43C201.194 219.489 209.855 204.681 218.234 190.363C225.9 177.261 233.141 164.887 233.141 140.915C233.141 89.929 191.661 48.449 140.676 48.449C89.6915 48.449 48.2105 89.928 48.2105 140.914C48.2105 164.886 55.4515 177.261 63.1175 190.362C71.4955 204.681 80.1575 219.49 82.2415 254.436ZM118.089 153.163H106.461C100.049 153.163 94.8335 147.947 94.8335 141.535C94.8335 135.123 100.049 129.907 106.461 129.907C112.873 129.907 118.089 135.123 118.089 141.535V153.163ZM147.261 246.167H134.089V169.163H147.261V246.167ZM183.109 262.167V267.895C183.108 269.413 182.504 270.868 181.431 271.941C180.358 273.015 178.902 273.618 177.384 273.62H103.966C102.449 273.618 100.993 273.015 99.9201 271.941C98.8467 270.868 98.2431 269.413 98.2415 267.895V262.167H183.109ZM164.118 301.071H118.152C116.634 301.069 115.179 300.466 114.105 299.392C113.032 298.319 112.428 296.863 112.426 295.345V289.619H169.843V295.345C169.842 296.863 169.238 298.318 168.165 299.391C167.091 300.465 165.636 301.069 164.118 301.071ZM150.041 328.524H132.228C130.71 328.522 129.255 327.919 128.182 326.845C127.108 325.772 126.505 324.316 126.503 322.798V317.071H155.767V322.798C155.766 324.316 155.162 325.771 154.088 326.845C153.015 327.918 151.56 328.522 150.041 328.524ZM140.675 64.448C182.838 64.448 217.14 98.75 217.14 140.914C217.14 160.549 211.528 170.14 204.424 182.282C196.519 195.791 186.811 212.382 183.689 246.168H163.261V169.164H174.889C190.123 169.164 202.517 156.77 202.517 141.536C202.517 126.302 190.123 113.908 174.889 113.908C159.655 113.908 147.261 126.302 147.261 141.536V153.164H134.089V141.536C134.089 126.302 121.695 113.908 106.461 113.908C91.2275 113.908 78.8335 126.302 78.8335 141.536C78.8335 156.77 91.2275 169.164 106.461 169.164H118.089V246.168H97.6615C94.5395 212.382 84.8315 195.792 76.9275 182.282C69.8235 170.14 64.2115 160.55 64.2115 140.914C64.2105 98.75 98.5125 64.448 140.675 64.448ZM163.261 153.163V141.535C163.261 135.123 168.477 129.907 174.889 129.907C181.301 129.907 186.517 135.123 186.517 141.535C186.517 147.947 181.301 153.163 174.889 153.163H163.261ZM132.676 27.896V8C132.676 5.87827 133.519 3.84344 135.02 2.34315C136.52 0.842855 138.555 0 140.676 0C142.798 0 144.833 0.842855 146.333 2.34315C147.834 3.84344 148.676 5.87827 148.676 8V27.896C148.676 30.0177 147.834 32.0526 146.333 33.5529C144.833 35.0531 142.798 35.896 140.676 35.896C138.555 35.896 136.52 35.0531 135.02 33.5529C133.519 32.0526 132.676 30.0177 132.676 27.896ZM60.0935 31.735C59.0493 29.8985 58.774 27.7236 59.3275 25.6849C59.881 23.6461 61.2184 21.9091 63.0479 20.8528C64.8774 19.7965 67.0505 19.5067 69.0928 20.0467C71.1352 20.5867 72.8811 21.9125 73.9495 23.735L83.8975 40.965C84.4228 41.8749 84.7637 42.8793 84.9008 43.9209C85.0379 44.9625 84.9685 46.021 84.6966 47.0358C84.4247 48.0506 83.9555 49.0019 83.3159 49.8354C82.6763 50.6689 81.8788 51.3682 80.969 51.8935C80.0591 52.4188 79.0547 52.7597 78.0131 52.8968C76.9715 53.0339 75.913 52.9646 74.8982 52.6926C73.8834 52.4207 72.9321 51.9515 72.0986 51.3119C71.2651 50.6724 70.5658 49.8749 70.0405 48.965L60.0935 31.735ZM37.2625 95.602C36.7374 96.5121 36.0381 97.3098 35.2045 97.9496C34.371 98.5893 33.4196 99.0586 32.4047 99.3305C31.3897 99.6024 30.3311 99.6717 29.2894 99.5343C28.2477 99.397 27.2433 99.0557 26.3335 98.53L9.10348 88.582C7.28103 87.5136 5.95515 85.7677 5.41518 83.7253C4.87521 81.683 5.16499 79.5099 6.22128 77.6804C7.27757 75.8509 9.01462 74.5135 11.0534 73.96C13.0921 73.4065 15.267 73.6819 17.1035 74.726L34.3335 84.674C35.2433 85.1992 36.0408 85.8985 36.6805 86.7319C37.3201 87.5654 37.7893 88.5166 38.0612 89.5314C38.3332 90.5461 38.4027 91.6045 38.2656 92.6461C38.1286 93.6877 37.7877 94.6921 37.2625 95.602ZM197.453 40.966L207.401 23.736C207.926 22.8259 208.626 22.0282 209.459 21.3885C210.293 20.7488 211.244 20.2795 212.259 20.0076C213.274 19.7357 214.332 19.6664 215.374 19.8038C216.415 19.9411 217.42 20.2823 218.329 20.808C220.167 21.8689 221.508 23.6162 222.057 25.6656C222.606 27.715 222.318 29.8986 221.257 31.736L211.309 48.966C210.784 49.8762 210.085 50.674 209.252 51.3138C208.418 51.9537 207.467 52.423 206.452 52.6949C205.437 52.9668 204.378 53.036 203.336 52.8986C202.295 52.7612 201.29 52.4198 200.38 51.894C198.543 50.8329 197.203 49.0855 196.654 47.0362C196.105 44.9868 196.393 42.8033 197.453 40.966ZM244.089 95.602C243.029 93.7646 242.741 91.581 243.29 89.5316C243.839 87.4822 245.18 85.7349 247.017 84.674L264.247 74.726C266.082 73.7082 268.244 73.4518 270.266 74.0122C272.288 74.5726 274.009 75.9049 275.058 77.722C276.107 79.5391 276.4 81.6956 275.875 83.727C275.349 85.7583 274.046 87.5019 272.247 88.582L255.017 98.53C254.108 99.0558 253.103 99.3971 252.062 99.5346C251.02 99.672 249.962 99.6027 248.947 99.3308C247.932 99.0589 246.98 98.5896 246.147 97.9498C245.314 97.31 244.614 96.5122 244.089 95.602ZM252.999 438.976L183.016 387.633C181.824 386.759 180.413 386.233 178.94 386.112C177.467 385.992 175.989 386.281 174.67 386.949C173.351 387.617 172.243 388.637 171.469 389.897C170.695 391.156 170.285 392.605 170.283 394.083V412.545C132.476 411.515 97.1495 402.085 84.6965 353.593C84.2983 352.043 83.4443 350.648 82.245 349.588C81.0456 348.528 79.556 347.853 77.9686 347.649C76.3812 347.445 74.7691 347.721 73.3407 348.443C71.9122 349.165 70.733 350.298 69.9555 351.697C55.1105 378.41 55.3425 409.816 70.5745 435.705C79.5235 450.916 93.4125 463.531 110.738 472.187C127.717 480.669 147.716 485.407 170.283 486.304V504C170.283 505.522 170.717 507.013 171.535 508.297C172.352 509.581 173.519 510.605 174.898 511.249C176.277 511.893 177.811 512.13 179.32 511.933C180.83 511.736 182.251 511.112 183.418 510.135L253.401 451.561C254.331 450.782 255.072 449.802 255.568 448.695C256.063 447.588 256.3 446.383 256.262 445.171C256.223 443.958 255.909 442.771 255.344 441.698C254.779 440.624 253.977 439.694 252.999 438.976ZM186.283 486.872V478.462C186.283 476.34 185.441 474.305 183.94 472.805C182.44 471.305 180.405 470.462 178.283 470.462C134.625 470.462 100.392 454.837 84.3645 427.592C75.4805 412.492 72.9165 395.049 76.6935 378.357C85.5685 396.723 99.1695 410.123 117.314 418.328C137.424 427.422 159.42 428.648 178.284 428.648C180.406 428.648 182.441 427.805 183.941 426.305C185.442 424.805 186.284 422.77 186.284 420.648V409.874L235.308 445.841L186.283 486.872ZM252.518 151.574C252.557 152.786 252.871 153.974 253.437 155.047C254.002 156.12 254.804 157.051 255.782 157.768L330.79 212.798C331.982 213.673 333.394 214.201 334.868 214.322C336.341 214.444 337.82 214.154 339.139 213.486C340.458 212.818 341.566 211.797 342.34 210.537C343.114 209.277 343.524 207.827 343.523 206.348V185.971C384.494 186.995 422.879 197.008 436.386 249.602C436.785 251.152 437.639 252.547 438.838 253.607C440.037 254.666 441.527 255.342 443.114 255.546C444.702 255.75 446.314 255.474 447.742 254.752C449.171 254.03 450.35 252.897 451.128 251.498C466.939 223.046 466.692 189.6 450.471 162.028C440.936 145.821 426.133 132.377 407.661 123.149C389.399 114.025 367.853 108.96 343.522 108.057V88.539C343.523 87.0169 343.088 85.5264 342.271 84.2424C341.454 82.9584 340.287 81.9343 338.908 81.2901C337.529 80.646 335.995 80.4087 334.486 80.606C332.976 80.8033 331.555 81.427 330.387 82.404L255.379 145.183C254.45 145.962 253.709 146.942 253.213 148.049C252.717 149.156 252.48 150.362 252.518 151.574ZM327.522 105.667V115.911C327.522 118.033 328.365 120.068 329.866 121.568C331.366 123.068 333.401 123.911 335.522 123.911C382.524 123.911 419.395 140.762 436.68 170.141C446.561 186.936 449.205 206.417 444.589 224.928C435.155 204.607 420.433 189.839 400.633 180.886C379.178 171.184 355.679 169.876 335.522 169.876C333.401 169.876 331.366 170.719 329.866 172.219C328.365 173.719 327.522 175.754 327.522 177.876V190.557L273.473 150.904L327.522 105.667Z" fill="#875A7B"/>
<path d="M500.162 363.821L471.254 359.194C469.658 354.174 467.636 349.299 465.212 344.622L482.385 320.903C483.501 319.362 484.031 317.474 483.88 315.577C483.729 313.681 482.908 311.9 481.562 310.555L459.286 288.279C457.941 286.934 456.161 286.112 454.264 285.961C452.368 285.81 450.479 286.34 448.938 287.456L425.22 304.628C420.543 302.203 415.668 300.181 410.647 298.584L406.02 269.679C405.72 267.801 404.759 266.091 403.312 264.856C401.864 263.622 400.024 262.944 398.121 262.944H366.619C364.717 262.944 362.877 263.622 361.429 264.856C359.982 266.091 359.021 267.801 358.72 269.679L354.093 298.584C349.072 300.18 344.196 302.202 339.518 304.627L315.801 287.455C314.261 286.339 312.372 285.809 310.476 285.96C308.579 286.11 306.799 286.932 305.453 288.278L283.178 310.554C281.833 311.899 281.012 313.68 280.861 315.576C280.71 317.473 281.24 319.361 282.355 320.902L299.529 344.62C297.104 349.297 295.083 354.172 293.486 359.192L264.578 363.82C262.7 364.121 260.99 365.081 259.756 366.529C258.521 367.976 257.843 369.817 257.843 371.719V403.221C257.844 405.123 258.522 406.964 259.756 408.411C260.99 409.859 262.7 410.819 264.578 411.12L293.485 415.747C295.082 420.767 297.104 425.642 299.529 430.319L282.355 454.038C281.24 455.579 280.71 457.467 280.861 459.364C281.012 461.26 281.833 463.041 283.178 464.386L305.453 486.661C306.799 488.006 308.579 488.828 310.476 488.979C312.372 489.13 314.26 488.6 315.801 487.484L339.52 470.312C344.197 472.737 349.072 474.759 354.092 476.356L358.719 505.261C359.02 507.139 359.981 508.849 361.428 510.084C362.876 511.318 364.716 511.996 366.618 511.996H398.12C400.023 511.996 401.863 511.318 403.311 510.084C404.758 508.849 405.719 507.139 406.02 505.261L410.646 476.353C415.667 474.756 420.542 472.735 425.219 470.311L448.938 487.484C450.479 488.6 452.367 489.13 454.263 488.979C456.16 488.828 457.94 488.006 459.285 486.661L481.561 464.386C482.907 463.041 483.728 461.26 483.879 459.364C484.03 457.467 483.5 455.579 482.384 454.038L465.212 430.32C467.638 425.643 469.66 420.767 471.257 415.746L500.162 411.119C502.041 410.818 503.751 409.858 504.985 408.41C506.219 406.963 506.897 405.122 506.897 403.22V371.72C506.897 369.818 506.219 367.977 504.985 366.53C503.751 365.082 502.041 364.122 500.162 363.821ZM490.897 396.401L463.707 400.754C462.167 401.001 460.733 401.692 459.58 402.743C458.428 403.795 457.608 405.16 457.221 406.671C455.41 413.748 452.597 420.531 448.868 426.813C448.073 428.155 447.687 429.7 447.758 431.259C447.829 432.818 448.355 434.321 449.27 435.585L465.425 457.898L452.796 470.527L430.483 454.371C429.22 453.456 427.716 452.93 426.158 452.859C424.599 452.787 423.054 453.174 421.712 453.97C415.43 457.698 408.647 460.51 401.57 462.322C400.059 462.709 398.694 463.528 397.643 464.681C396.591 465.833 395.9 467.268 395.654 468.808L391.298 496H373.438L369.085 468.81C368.839 467.27 368.147 465.835 367.096 464.683C366.045 463.53 364.68 462.711 363.168 462.324C356.092 460.513 349.31 457.7 343.029 453.971C341.687 453.175 340.141 452.788 338.582 452.86C337.023 452.931 335.519 453.456 334.255 454.371L311.941 470.527L299.312 457.898L315.468 435.584C316.383 434.32 316.909 432.817 316.98 431.258C317.051 429.699 316.665 428.154 315.869 426.812C312.142 420.529 309.329 413.747 307.517 406.67C307.131 405.159 306.311 403.794 305.159 402.742C304.006 401.691 302.572 401 301.031 400.753L273.839 396.4V378.541L301.031 374.187C302.572 373.94 304.006 373.249 305.158 372.197C306.311 371.146 307.131 369.781 307.517 368.27C309.329 361.193 312.141 354.411 315.869 348.129C316.665 346.787 317.051 345.242 316.98 343.683C316.908 342.125 316.383 340.621 315.468 339.357L299.312 317.044L311.941 304.415L334.254 320.57C335.518 321.485 337.022 322.01 338.581 322.082C340.139 322.153 341.685 321.767 343.026 320.971C349.309 317.242 356.091 314.43 363.168 312.619C364.68 312.233 366.045 311.413 367.097 310.26C368.148 309.108 368.84 307.673 369.086 306.133L373.439 278.943H391.299L395.652 306.133C395.899 307.673 396.591 309.108 397.642 310.26C398.694 311.413 400.059 312.233 401.57 312.619C408.647 314.43 415.429 317.243 421.71 320.972C423.052 321.768 424.598 322.154 426.156 322.083C427.715 322.011 429.219 321.486 430.482 320.571L452.796 304.415L465.424 317.044L449.268 339.358C448.354 340.622 447.828 342.125 447.757 343.684C447.686 345.243 448.072 346.788 448.867 348.13C452.595 354.412 455.408 361.194 457.219 368.271C457.606 369.782 458.426 371.147 459.578 372.199C460.731 373.25 462.165 373.941 463.705 374.188L490.897 378.541V396.401ZM382.368 332.924C352.292 332.924 327.822 357.394 327.822 387.471C327.822 417.548 352.292 442.017 382.368 442.017C412.445 442.017 436.914 417.548 436.914 387.471C436.914 357.394 412.445 332.924 382.368 332.924ZM382.368 426.018C361.115 426.018 343.822 408.726 343.822 387.472C343.822 366.217 361.115 348.925 382.368 348.925C403.622 348.925 420.914 366.217 420.914 387.472C420.915 408.726 403.623 426.018 382.368 426.018ZM82.2415 254.436V267.895C82.2415 277.224 88.1535 285.197 96.4265 288.269V295.347C96.4265 304.635 102.287 312.577 110.503 315.678V322.799C110.503 334.778 120.249 344.525 132.228 344.525H150.041C162.02 344.525 171.766 334.779 171.766 322.799V315.678C179.982 312.577 185.842 304.635 185.842 295.347V287.907C193.632 284.602 199.109 276.877 199.109 267.896V254.43C201.194 219.489 209.855 204.681 218.234 190.363C225.9 177.261 233.141 164.887 233.141 140.915C233.141 89.929 191.661 48.449 140.676 48.449C89.6915 48.449 48.2105 89.928 48.2105 140.914C48.2105 164.886 55.4515 177.261 63.1175 190.362C71.4955 204.681 80.1575 219.49 82.2415 254.436ZM118.089 153.163H106.461C100.049 153.163 94.8335 147.947 94.8335 141.535C94.8335 135.123 100.049 129.907 106.461 129.907C112.873 129.907 118.089 135.123 118.089 141.535V153.163ZM147.261 246.167H134.089V169.163H147.261V246.167ZM183.109 262.167V267.895C183.108 269.413 182.504 270.868 181.431 271.941C180.358 273.015 178.902 273.618 177.384 273.62H103.966C102.449 273.618 100.993 273.015 99.9201 271.941C98.8467 270.868 98.2431 269.413 98.2415 267.895V262.167H183.109ZM164.118 301.071H118.152C116.634 301.069 115.179 300.466 114.105 299.392C113.032 298.319 112.428 296.863 112.426 295.345V289.619H169.843V295.345C169.842 296.863 169.238 298.318 168.165 299.391C167.091 300.465 165.636 301.069 164.118 301.071ZM150.041 328.524H132.228C130.71 328.522 129.255 327.919 128.182 326.845C127.108 325.772 126.505 324.316 126.503 322.798V317.071H155.767V322.798C155.766 324.316 155.162 325.771 154.088 326.845C153.015 327.918 151.56 328.522 150.041 328.524ZM140.675 64.448C182.838 64.448 217.14 98.75 217.14 140.914C217.14 160.549 211.528 170.14 204.424 182.282C196.519 195.791 186.811 212.382 183.689 246.168H163.261V169.164H174.889C190.123 169.164 202.517 156.77 202.517 141.536C202.517 126.302 190.123 113.908 174.889 113.908C159.655 113.908 147.261 126.302 147.261 141.536V153.164H134.089V141.536C134.089 126.302 121.695 113.908 106.461 113.908C91.2275 113.908 78.8335 126.302 78.8335 141.536C78.8335 156.77 91.2275 169.164 106.461 169.164H118.089V246.168H97.6615C94.5395 212.382 84.8315 195.792 76.9275 182.282C69.8235 170.14 64.2115 160.55 64.2115 140.914C64.2105 98.75 98.5125 64.448 140.675 64.448ZM163.261 153.163V141.535C163.261 135.123 168.477 129.907 174.889 129.907C181.301 129.907 186.517 135.123 186.517 141.535C186.517 147.947 181.301 153.163 174.889 153.163H163.261ZM132.676 27.896V8C132.676 5.87827 133.519 3.84344 135.02 2.34315C136.52 0.842855 138.555 0 140.676 0C142.798 0 144.833 0.842855 146.333 2.34315C147.834 3.84344 148.676 5.87827 148.676 8V27.896C148.676 30.0177 147.834 32.0526 146.333 33.5529C144.833 35.0531 142.798 35.896 140.676 35.896C138.555 35.896 136.52 35.0531 135.02 33.5529C133.519 32.0526 132.676 30.0177 132.676 27.896ZM60.0935 31.735C59.0493 29.8985 58.774 27.7236 59.3275 25.6849C59.881 23.6461 61.2184 21.9091 63.0479 20.8528C64.8774 19.7965 67.0505 19.5067 69.0928 20.0467C71.1352 20.5867 72.8811 21.9125 73.9495 23.735L83.8975 40.965C84.4228 41.8749 84.7637 42.8793 84.9008 43.9209C85.0379 44.9625 84.9685 46.021 84.6966 47.0358C84.4247 48.0506 83.9555 49.0019 83.3159 49.8354C82.6763 50.6689 81.8788 51.3682 80.969 51.8935C80.0591 52.4188 79.0547 52.7597 78.0131 52.8968C76.9715 53.0339 75.913 52.9646 74.8982 52.6926C73.8834 52.4207 72.9321 51.9515 72.0986 51.3119C71.2651 50.6724 70.5658 49.8749 70.0405 48.965L60.0935 31.735ZM37.2625 95.602C36.7374 96.5121 36.0381 97.3098 35.2045 97.9496C34.371 98.5893 33.4196 99.0586 32.4047 99.3305C31.3897 99.6024 30.3311 99.6717 29.2894 99.5343C28.2477 99.397 27.2433 99.0557 26.3335 98.53L9.10348 88.582C7.28103 87.5136 5.95515 85.7677 5.41518 83.7253C4.87521 81.683 5.16499 79.5099 6.22128 77.6804C7.27757 75.8509 9.01462 74.5135 11.0534 73.96C13.0921 73.4065 15.267 73.6819 17.1035 74.726L34.3335 84.674C35.2433 85.1992 36.0408 85.8985 36.6805 86.7319C37.3201 87.5654 37.7893 88.5166 38.0612 89.5314C38.3332 90.5461 38.4027 91.6045 38.2656 92.6461C38.1286 93.6877 37.7877 94.6921 37.2625 95.602ZM197.453 40.966L207.401 23.736C207.926 22.8259 208.626 22.0282 209.459 21.3885C210.293 20.7488 211.244 20.2795 212.259 20.0076C213.274 19.7357 214.332 19.6664 215.374 19.8038C216.415 19.9411 217.42 20.2823 218.329 20.808C220.167 21.8689 221.508 23.6162 222.057 25.6656C222.606 27.715 222.318 29.8986 221.257 31.736L211.309 48.966C210.784 49.8762 210.085 50.674 209.252 51.3138C208.418 51.9537 207.467 52.423 206.452 52.6949C205.437 52.9668 204.378 53.036 203.336 52.8986C202.295 52.7612 201.29 52.4198 200.38 51.894C198.543 50.8329 197.203 49.0855 196.654 47.0362C196.105 44.9868 196.393 42.8033 197.453 40.966ZM244.089 95.602C243.029 93.7646 242.741 91.581 243.29 89.5316C243.839 87.4822 245.18 85.7349 247.017 84.674L264.247 74.726C266.082 73.7082 268.244 73.4518 270.266 74.0122C272.288 74.5726 274.009 75.9049 275.058 77.722C276.107 79.5391 276.4 81.6956 275.875 83.727C275.349 85.7583 274.046 87.5019 272.247 88.582L255.017 98.53C254.108 99.0558 253.103 99.3971 252.062 99.5346C251.02 99.672 249.962 99.6027 248.947 99.3308C247.932 99.0589 246.98 98.5896 246.147 97.9498C245.314 97.31 244.614 96.5122 244.089 95.602ZM252.999 438.976L183.016 387.633C181.824 386.759 180.413 386.233 178.94 386.112C177.467 385.992 175.989 386.281 174.67 386.949C173.351 387.617 172.243 388.637 171.469 389.897C170.695 391.156 170.285 392.605 170.283 394.083V412.545C132.476 411.515 97.1495 402.085 84.6965 353.593C84.2983 352.043 83.4443 350.648 82.245 349.588C81.0456 348.528 79.556 347.853 77.9686 347.649C76.3812 347.445 74.7691 347.721 73.3407 348.443C71.9122 349.165 70.733 350.298 69.9555 351.697C55.1105 378.41 55.3425 409.816 70.5745 435.705C79.5235 450.916 93.4125 463.531 110.738 472.187C127.717 480.669 147.716 485.407 170.283 486.304V504C170.283 505.522 170.717 507.013 171.535 508.297C172.352 509.581 173.519 510.605 174.898 511.249C176.277 511.893 177.811 512.13 179.32 511.933C180.83 511.736 182.251 511.112 183.418 510.135L253.401 451.561C254.331 450.782 255.072 449.802 255.568 448.695C256.063 447.588 256.3 446.383 256.262 445.171C256.223 443.958 255.909 442.771 255.344 441.698C254.779 440.624 253.977 439.694 252.999 438.976ZM186.283 486.872V478.462C186.283 476.34 185.441 474.305 183.94 472.805C182.44 471.305 180.405 470.462 178.283 470.462C134.625 470.462 100.392 454.837 84.3645 427.592C75.4805 412.492 72.9165 395.049 76.6935 378.357C85.5685 396.723 99.1695 410.123 117.314 418.328C137.424 427.422 159.42 428.648 178.284 428.648C180.406 428.648 182.441 427.805 183.941 426.305C185.442 424.805 186.284 422.77 186.284 420.648V409.874L235.308 445.841L186.283 486.872ZM252.518 151.574C252.557 152.786 252.871 153.974 253.437 155.047C254.002 156.12 254.804 157.051 255.782 157.768L330.79 212.798C331.982 213.673 333.394 214.201 334.868 214.322C336.341 214.444 337.82 214.154 339.139 213.486C340.458 212.818 341.566 211.797 342.34 210.537C343.114 209.277 343.524 207.827 343.523 206.348V185.971C384.494 186.995 422.879 197.008 436.386 249.602C436.785 251.152 437.639 252.547 438.838 253.607C440.037 254.666 441.527 255.342 443.114 255.546C444.702 255.75 446.314 255.474 447.742 254.752C449.171 254.03 450.35 252.897 451.128 251.498C466.939 223.046 466.692 189.6 450.471 162.028C440.936 145.821 426.133 132.377 407.661 123.149C389.399 114.025 367.853 108.96 343.522 108.057V88.539C343.523 87.0169 343.088 85.5264 342.271 84.2424C341.454 82.9584 340.287 81.9343 338.908 81.2901C337.529 80.646 335.995 80.4087 334.486 80.606C332.976 80.8033 331.555 81.427 330.387 82.404L255.379 145.183C254.45 145.962 253.709 146.942 253.213 148.049C252.717 149.156 252.48 150.362 252.518 151.574ZM327.522 105.667V115.911C327.522 118.033 328.365 120.068 329.866 121.568C331.366 123.068 333.401 123.911 335.522 123.911C382.524 123.911 419.395 140.762 436.68 170.141C446.561 186.936 449.205 206.417 444.589 224.928C435.155 204.607 420.433 189.839 400.633 180.886C379.178 171.184 355.679 169.876 335.522 169.876C333.401 169.876 331.366 170.719 329.866 172.219C328.365 173.719 327.522 175.754 327.522 177.876V190.557L273.473 150.904L327.522 105.667Z" stroke="#875A7B" stroke-width="3" mask="url(#path-1-outside-1_1785_74)"/>
</g>
<defs>
<clipPath id="clip0_1785_74">
<rect width="512" height="512" fill="white"/>
</clipPath>
</defs>
</svg>
