<svg width="512" height="512" viewBox="0 0 512 512" fill="none" xmlns="http://www.w3.org/2000/svg">
<path d="M230.115 448.711C227.302 445.872 225.719 442.041 225.707 438.044V416.569C225.615 413.325 224.49 410.196 222.494 407.637C220.498 405.078 217.737 403.225 214.613 402.347C203.265 399.134 192.334 394.599 182.044 388.835C179.146 387.219 175.798 386.594 172.512 387.056C169.225 387.518 166.18 389.042 163.84 391.395L148.622 406.613C145.77 409.453 141.909 411.048 137.884 411.048C133.859 411.048 129.999 409.453 127.147 406.613L105.813 384.711C102.973 381.859 101.379 377.998 101.379 373.973C101.379 369.948 102.973 366.087 105.813 363.235L121.031 348.018C123.352 345.688 124.856 342.669 125.318 339.413C125.779 336.157 125.173 332.838 123.591 329.955C117.822 319.668 113.287 308.737 110.08 297.387C109.202 294.263 107.348 291.501 104.789 289.506C102.231 287.51 99.1013 286.384 95.8577 286.293H73.9554C69.9309 286.256 66.0817 284.641 63.2359 281.795C60.39 278.949 58.7748 275.1 58.7377 271.075V240.782C58.8116 236.782 60.443 232.969 63.285 230.154C66.127 227.338 69.9552 225.743 73.9554 225.707H95.431C98.6746 225.615 101.804 224.49 104.363 222.494C106.921 220.498 108.775 217.737 109.653 214.613C112.855 203.261 117.39 192.329 123.164 182.044C124.781 179.146 125.406 175.798 124.944 172.512C124.482 169.225 122.958 166.18 120.604 163.84L105.813 148.764C103.007 145.894 101.436 142.04 101.436 138.027C101.436 134.013 103.007 130.159 105.813 127.289L127.289 105.813C130.141 102.973 134.002 101.379 138.027 101.379C142.051 101.379 145.912 102.973 148.764 105.813L163.982 121.031C166.322 123.384 169.368 124.908 172.654 125.371C175.941 125.833 179.288 125.208 182.187 123.591C192.474 117.823 203.406 113.288 214.755 110.08C217.879 109.202 220.641 107.348 222.636 104.789C224.632 102.231 225.758 99.1013 225.849 95.8577V73.9554C225.849 71.957 226.242 69.9782 227.007 68.1319C227.772 66.2856 228.893 64.608 230.306 63.1949C231.719 61.7818 233.397 60.6608 235.243 59.8961C237.089 59.1313 239.068 58.7377 241.067 58.7377H271.36V28.4443H240.782C228.712 28.4443 217.136 33.2392 208.601 41.7742C200.066 50.3092 195.271 61.8851 195.271 73.9554V84.3377C189.22 86.491 183.286 88.9595 177.493 91.7332L170.667 84.3377C162.135 75.8265 150.576 71.0467 138.524 71.0467C126.473 71.0467 114.914 75.8265 106.382 84.3377L84.3377 105.813C75.9292 114.399 71.22 125.938 71.22 137.955C71.22 149.973 75.9292 161.512 84.3377 170.098L91.7332 177.493C88.9549 183.284 86.4863 189.218 84.3377 195.271H73.9554C61.9196 195.382 50.4082 200.213 41.8972 208.724C33.3863 217.235 28.5556 228.746 28.4443 240.782V271.075C28.5556 283.111 33.3863 294.623 41.8972 303.134C50.4082 311.645 61.9196 316.475 73.9554 316.587H84.3377C86.491 322.637 88.9595 328.572 91.7332 334.364L84.3377 341.333C75.8265 349.865 71.0467 361.424 71.0467 373.475C71.0467 385.527 75.8265 397.086 84.3377 405.618L105.813 427.093C114.363 435.57 125.916 440.326 137.955 440.326C149.995 440.326 161.548 435.57 170.098 427.093L177.493 419.698C183.286 422.471 189.22 424.94 195.271 427.093V437.475C195.323 449.532 200.126 461.081 208.64 469.618C212.849 473.859 217.856 477.224 223.373 479.519C228.89 481.813 234.807 482.992 240.782 482.987H271.075V453.262H240.782C236.768 453.197 232.94 451.564 230.115 448.711Z" fill="#875A7B"/>
<path d="M438.044 392.533C429.077 392.541 420.315 395.214 412.871 400.213L325.831 334.933C323.202 332.974 320.007 331.926 316.729 331.946H256C243.929 331.946 232.354 327.152 223.819 318.617C215.284 310.082 210.489 298.506 210.489 286.435V225.706C210.489 213.636 215.284 202.06 223.819 193.525C232.354 184.99 243.929 180.195 256 180.195H316.729C320.007 180.216 323.202 179.167 325.831 177.209L412.444 111.786C420.839 117.498 430.903 120.238 441.035 119.57C451.167 118.903 460.784 114.867 468.358 108.103C475.931 101.34 481.025 92.2388 482.83 82.2468C484.635 72.2547 483.046 61.9462 478.317 52.961C473.588 43.9758 465.99 36.8301 456.732 32.6606C447.474 28.4912 437.088 27.5374 427.225 29.9511C417.362 32.3648 408.59 38.0074 402.304 45.9811C396.018 53.9548 392.578 63.8017 392.533 73.9553C392.597 78.5488 393.364 83.1055 394.809 87.4664L311.609 149.902H256C235.895 149.902 216.614 157.888 202.398 172.105C188.182 186.321 180.195 205.602 180.195 225.706V286.435C180.195 306.54 188.182 325.821 202.398 340.037C216.614 354.253 235.895 362.24 256 362.24H311.609L394.809 424.675C393.364 429.036 392.597 433.593 392.533 438.186C392.533 447.188 395.202 455.987 400.203 463.471C405.204 470.955 412.312 476.789 420.628 480.233C428.944 483.678 438.095 484.579 446.923 482.823C455.751 481.067 463.861 476.732 470.225 470.368C476.59 464.003 480.925 455.893 482.681 447.065C484.437 438.237 483.536 429.086 480.091 420.77C476.646 412.454 470.813 405.346 463.329 400.345C455.845 395.344 447.045 392.675 438.044 392.675V392.533ZM438.044 58.7375C441.054 58.7375 443.996 59.63 446.499 61.3022C449.001 62.9743 450.952 65.351 452.104 68.1317C453.255 70.9124 453.557 73.9722 452.97 76.9241C452.382 79.8761 450.933 82.5876 448.805 84.7159C446.677 86.8441 443.965 88.2935 441.013 88.8807C438.061 89.4678 435.001 89.1665 432.221 88.0147C429.44 86.8629 427.063 84.9124 425.391 82.4098C423.719 79.9073 422.826 76.9651 422.826 73.9553C422.826 69.9193 424.43 66.0486 427.284 63.1947C430.137 60.3408 434.008 58.7375 438.044 58.7375ZM438.044 453.12C435.034 453.12 432.092 452.227 429.59 450.555C427.087 448.883 425.137 446.506 423.985 443.726C422.833 440.945 422.532 437.885 423.119 434.933C423.706 431.981 425.155 429.27 427.284 427.141C429.412 425.013 432.123 423.564 435.075 422.977C438.027 422.389 441.087 422.691 443.868 423.843C446.648 424.994 449.025 426.945 450.697 429.447C452.369 431.95 453.262 434.892 453.262 437.902C453.281 439.912 452.901 441.906 452.145 443.769C451.388 445.632 450.27 447.326 448.855 448.755C447.44 450.183 445.756 451.316 443.901 452.09C442.045 452.864 440.055 453.262 438.044 453.262V453.12Z" fill="#875A7B"/>
<path d="M438.044 210.489C428.675 210.515 419.543 213.44 411.904 218.865C404.264 224.289 398.491 231.945 395.378 240.782H256V271.076H395.378C398.19 278.893 403.096 285.788 409.558 291.008C416.021 296.229 423.793 299.574 432.027 300.681C440.261 301.787 448.641 300.611 456.252 297.281C463.863 293.951 470.414 288.595 475.19 281.797C479.966 274.999 482.784 267.02 483.336 258.731C483.888 250.442 482.154 242.16 478.321 234.788C474.489 227.417 468.707 221.24 461.604 216.93C454.502 212.62 446.352 210.342 438.044 210.347V210.489ZM438.044 271.218C435.035 271.218 432.092 270.325 429.59 268.653C427.087 266.981 425.137 264.604 423.985 261.824C422.833 259.043 422.532 255.983 423.119 253.031C423.706 250.079 425.156 247.368 427.284 245.239C429.412 243.111 432.124 241.662 435.076 241.075C438.028 240.487 441.087 240.789 443.868 241.941C446.649 243.092 449.025 245.043 450.698 247.545C452.37 250.048 453.262 252.99 453.262 256C453.262 260.036 451.659 263.907 448.805 266.761C445.951 269.615 442.08 271.218 438.044 271.218Z" fill="#875A7B"/>
</svg>
